<svg id="Layer_1" data-name="Layer 1" xmlns="http://www.w3.org/2000/svg" viewBox="0 0 120 120"><defs><style>.cls-1{fill:#ccc;}.cls-2{fill:#e00;}</style></defs><title>iconos</title><path class="cls-1" d="M66.32,80q0-.6,0-1.2a23.33,23.33,0,0,0-45.9-5.89A17.79,17.79,0,0,0,22,108.38H65.38A14.24,14.24,0,0,0,79.62,94.15h0A14.22,14.22,0,0,0,66.32,80Z"/><path class="cls-2" d="M103,51.47,56.74,97.69,40,100.63a3.31,3.31,0,0,1-3.83-3.83L39.1,80.08,85.34,33.85ZM106.48,48,88.86,30.33,96,23.16a7.48,7.48,0,0,1,10.58,0l7,7.05a7.47,7.47,0,0,1,0,10.57Z"/></svg>