<svg id="Layer_1" data-name="Layer 1" xmlns="http://www.w3.org/2000/svg" viewBox="0 0 120 120"><defs><style>.cls-1{fill:#ccc;}.cls-2{fill:#e00;}.cls-3{fill:#fff;}</style></defs><title>iconos</title><path class="cls-1" d="M66.69,80q0-.6,0-1.2a23.33,23.33,0,0,0-45.9-5.89,17.79,17.79,0,0,0,1.51,35.51H65.75A14.24,14.24,0,0,0,80,94.15h0A14.22,14.22,0,0,0,66.69,80Z"/><path class="cls-2" d="M108.73,99.68H41.49A6.73,6.73,0,0,1,35.67,89.6L69.29,31.31a6.73,6.73,0,0,1,11.65,0L114.55,89.6A6.72,6.72,0,0,1,108.73,99.68ZM68.67,84a6.45,6.45,0,1,0,6.44-6.45A6.44,6.44,0,0,0,68.67,84ZM70,73.43A1.69,1.69,0,0,0,71.71,75h6.8a1.69,1.69,0,0,0,1.68-1.59l1-19.05a1.68,1.68,0,0,0-1.68-1.77H70.67A1.69,1.69,0,0,0,69,54.38Z"/><path class="cls-3" d="M68.67,84a6.45,6.45,0,1,0,6.44-6.45A6.44,6.44,0,0,0,68.67,84Z"/></svg>