<svg id="Layer_1" data-name="Layer 1" xmlns="http://www.w3.org/2000/svg" viewBox="0 0 120 120"><defs><style>.cls-1{fill:#ccc;}.cls-2{fill:#e00;}</style></defs><title>iconos</title><path class="cls-1" d="M67.07,80q0-.6,0-1.2a23.33,23.33,0,0,0-45.9-5.89,17.79,17.79,0,0,0,1.52,35.51H66.13A14.23,14.23,0,0,0,80.37,94.15h0A14.22,14.22,0,0,0,67.07,80Z"/><path class="cls-2" d="M115.08,93.21a7.48,7.48,0,0,1-7.47,7.47H52.81a7.47,7.47,0,0,1-7.47-7.47V38.41a7.46,7.46,0,0,1,7.47-7.47h7.47v-8.1A1.87,1.87,0,0,1,62.15,21h6.23a1.87,1.87,0,0,1,1.86,1.86v8.1H90.17v-8.1A1.87,1.87,0,0,1,92,21h6.22a1.87,1.87,0,0,1,1.87,1.86v8.1h7.48a7.47,7.47,0,0,1,7.47,7.47Zm-7.47-47.33H52.81V92.27a.94.94,0,0,0,.93.94h52.93a1,1,0,0,0,.94-.94ZM62.15,65.81a1.87,1.87,0,0,1-1.87-1.87V57.71a1.87,1.87,0,0,1,1.87-1.86h6.23a1.87,1.87,0,0,1,1.86,1.86v6.23a1.87,1.87,0,0,1-1.86,1.87Zm6.23,14.94H62.15a1.87,1.87,0,0,1-1.87-1.87V72.66a1.87,1.87,0,0,1,1.87-1.87h6.23a1.87,1.87,0,0,1,1.86,1.87v6.22A1.87,1.87,0,0,1,68.38,80.75ZM83.32,65.81H77.09a1.87,1.87,0,0,1-1.86-1.87V57.71a1.87,1.87,0,0,1,1.86-1.86h6.23a1.87,1.87,0,0,1,1.87,1.86v6.23A1.87,1.87,0,0,1,83.32,65.81Zm0,14.94H77.09a1.87,1.87,0,0,1-1.86-1.87V72.66a1.87,1.87,0,0,1,1.86-1.87h6.23a1.87,1.87,0,0,1,1.87,1.87v6.22A1.87,1.87,0,0,1,83.32,80.75ZM98.26,65.81H92a1.87,1.87,0,0,1-1.87-1.87V57.71A1.87,1.87,0,0,1,92,55.85h6.22a1.87,1.87,0,0,1,1.87,1.86v6.23A1.87,1.87,0,0,1,98.26,65.81Zm0,14.94H92a1.87,1.87,0,0,1-1.87-1.87V72.66A1.87,1.87,0,0,1,92,70.79h6.22a1.87,1.87,0,0,1,1.87,1.87v6.22A1.87,1.87,0,0,1,98.26,80.75Z"/></svg>