<svg id="Layer_1" data-name="Layer 1" xmlns="http://www.w3.org/2000/svg" viewBox="0 0 120 120">
  <defs>
    <style>.cls-1{fill:#ccc;}.cls-2{fill:#e00;}</style>
  </defs>
  <title>iconos</title>
  <path class="cls-1" d="M66.94,80q0-.6,0-1.2a23.33,23.33,0,0,0-45.9-5.89,17.79,17.79,0,0,0,1.52,35.51H66A14.23,14.23,0,0,0,80.24,94.15h0A14.22,14.22,0,0,0,66.94,80Z" />
  <path class="cls-2" d="M115.2,44.51c0,16-8.62,25.66-19.92,32.86V93.63h0a8.14,8.14,0,0,1-4.13,6.67L75.79,108a4.34,4.34,0,0,1-1.67.39,3.73,3.73,0,0,1-3.73-3.73h0V88.48L66.89,92a5,5,0,0,1-7,0l-7.92-7.92a5,5,0,0,1,0-7l3.5-3.5H39.26a3.73,3.73,0,0,1-3.73-3.73,4.34,4.34,0,0,1,.39-1.67l7.69-15.38a8.18,8.18,0,0,1,6.68-4.12H66.51C73.7,37.27,83.33,28.68,99.4,28.68a56.67,56.67,0,0,1,12.84,1.07,2.72,2.72,0,0,1,1.9,1.9A55.1,55.1,0,0,1,115.2,44.51Zm-13.68,4.1a6.23,6.23,0,1,0-6.23,6.22A6.23,6.23,0,0,0,101.52,48.61Z" />
</svg>