<svg id="Layer_1" data-name="Layer 1" xmlns="http://www.w3.org/2000/svg" viewBox="0 0 120 120"><defs><style>.cls-1{fill:#ccc;}.cls-2{fill:#e00;}</style></defs><title>iconos</title><path class="cls-1" d="M65.83,80q0-.6,0-1.2A23.33,23.33,0,0,0,20,72.87a17.79,17.79,0,0,0,1.52,35.51H64.89A14.24,14.24,0,0,0,79.13,94.15h0A14.22,14.22,0,0,0,65.83,80Z"/><path class="cls-2" d="M115.22,95.18l-4.4,4.41a3.73,3.73,0,0,1-5.28,0L90,84.07a3.74,3.74,0,0,1-1.09-2.65V78.88a32.36,32.36,0,1,1,5.6-5.6h2.54a3.74,3.74,0,0,1,2.65,1.09l15.52,15.52A3.74,3.74,0,0,1,115.22,95.18ZM88.93,53.35A19.93,19.93,0,1,0,69,73.28,19.91,19.91,0,0,0,88.93,53.35Z"/></svg>