<svg id="Layer_1" data-name="Layer 1" xmlns="http://www.w3.org/2000/svg" viewBox="0 0 200 200"><defs><style>.cls-1{fill:#e00;}.cls-2{fill:#999;}.cls-3{fill:#fff;}.cls-4{fill:#ccc;}</style></defs><title>iconos</title><path class="cls-1" d="M115.12,22.11,88.89,48.34,79.4,50a1.87,1.87,0,0,1-2.17-2.17l1.65-9.5,26.24-26.23Zm2-2-10-10L111.19,6a4.26,4.26,0,0,1,6,0l4,4a4.24,4.24,0,0,1,0,6Z"/><path class="cls-2" d="M124.11,98.78c0-.37,0-.74,0-1.12a21.73,21.73,0,0,0-42.75-5.49,16.57,16.57,0,0,0,1.41,33.09h40.44A13.26,13.26,0,0,0,136.49,112h0A13.24,13.24,0,0,0,124.11,98.78Z"/><path class="cls-1" d="M44.88,152a12.68,12.68,0,0,1-13,3L13,173.82a5.65,5.65,0,0,1-8-8L23.88,147A12.66,12.66,0,0,1,39,130.62a1.06,1.06,0,0,1,.5,1.78L32.89,139l1,6,6,1,6.57-6.57a1.06,1.06,0,0,1,1.78.49A12.74,12.74,0,0,1,44.88,152ZM11.15,169.83A2.12,2.12,0,1,0,9,172,2.12,2.12,0,0,0,11.15,169.83Z"/><path class="cls-1" d="M191.55,170.8H155.73a2.06,2.06,0,0,1-1.77-1,23,23,0,1,1,39.37,0A2.07,2.07,0,0,1,191.55,170.8Z"/><path class="cls-3" d="M178.64,160.38a5,5,0,0,0-10,0,4.93,4.93,0,0,0,.72,2.58h8.56A4.93,4.93,0,0,0,178.64,160.38Z"/><path class="cls-3" d="M173.64,162.45a2.07,2.07,0,0,1-.4-4.11l14.54-3a2.07,2.07,0,1,1,.8,4.07l-14.54,3A1.81,1.81,0,0,1,173.64,162.45Z"/><path class="cls-4" d="M18.78,131.11a6.53,6.53,0,0,1-6.35-5A90,90,0,0,1,56.74,26.65,6.52,6.52,0,0,1,63,38.09a76.89,76.89,0,0,0-37.87,85,6.5,6.5,0,0,1-6.35,8Z"/><path class="cls-4" d="M61.67,46.15l14.16-19a1.32,1.32,0,0,0-.9-2.1L51.37,22.27Z"/><path class="cls-4" d="M99.82,195.2a89.79,89.79,0,0,1-44.66-11.88A6.52,6.52,0,1,1,61.65,172a76.81,76.81,0,0,0,77.06-.43,6.52,6.52,0,0,1,6.63,11.24A89.73,89.73,0,0,1,99.82,195.2Z"/><path class="cls-4" d="M69.22,169,45.6,166.79a1.32,1.32,0,0,0-1.32,1.87l9.91,21.55Z"/><path class="cls-4" d="M183.06,112.23a6.52,6.52,0,0,1-6.52-6.52v-.28A77.15,77.15,0,0,0,127,33.67a6.52,6.52,0,1,1,4.62-12.2,89.79,89.79,0,0,1,57.92,84v.28A6.51,6.51,0,0,1,183.06,112.23Z"/><path class="cls-4" d="M170.11,100.64,180,122.22a1.32,1.32,0,0,0,2.27.22L196,103.12Z"/></svg>