<svg id="Layer_1" data-name="Layer 1" xmlns="http://www.w3.org/2000/svg" viewBox="0 0 120 120"><defs><style>.cls-1{fill:#eaeaea;}.cls-2{fill:#e00;}.cls-3{fill:#fff;}</style></defs><title>iconos</title><path class="cls-1" d="M65.4,80q0-.6,0-1.2a23.33,23.33,0,0,0-45.9-5.89A17.79,17.79,0,0,0,21,108.38H64.46A14.23,14.23,0,0,0,78.69,94.15h0A14.22,14.22,0,0,0,65.4,80Z"/><path class="cls-2" d="M105.51,96.72H42.4A3.66,3.66,0,0,1,39.27,95a40.51,40.51,0,1,1,69.37,0A3.66,3.66,0,0,1,105.51,96.72Z"/><path class="cls-3" d="M82.77,78.37a8.82,8.82,0,1,0-16.36,4.55H81.5A8.82,8.82,0,0,0,82.77,78.37Z"/><path class="cls-3" d="M74,82a3.66,3.66,0,0,1-.71-7.24l25.62-5.29a3.66,3.66,0,1,1,1.43,7.17L74.67,82A3.51,3.51,0,0,1,74,82Z"/></svg>