<svg id="Layer_1" data-name="Layer 1" xmlns="http://www.w3.org/2000/svg" viewBox="0 0 120 120">
  <defs>
    <style>.cls-1{fill:#ccc;}.cls-2{fill:#e00;}</style>
  </defs>
  <title>iconos</title>
  <path class="cls-1" d="M64.59,80q0-.6,0-1.2a23.33,23.33,0,0,0-45.9-5.89,17.79,17.79,0,0,0,1.52,35.51H63.66A14.23,14.23,0,0,0,77.89,94.15h0A14.22,14.22,0,0,0,64.59,80Z" />
  <path class="cls-2" d="M117.56,37.86v42A4.22,4.22,0,0,1,113.29,84a4.41,4.41,0,0,1-1.37-.22A40,40,0,0,0,99.66,82c-16.29,0-32.59,8.24-48.88,8.24a39,39,0,0,1-15.4-3,4.2,4.2,0,0,1-2.49-3.9v-42a4.21,4.21,0,0,1,4.26-4.21,4.41,4.41,0,0,1,1.37.22,40.35,40.35,0,0,0,12.26,1.81C67.07,39.23,83.37,31,99.66,31a39.19,39.19,0,0,1,15.4,3A4.21,4.21,0,0,1,117.56,37.86ZM39.24,52.24a8.46,8.46,0,0,0,8.29-6.81,45.75,45.75,0,0,1-8.29-1.19Zm8.43,31.51a8.48,8.48,0,0,0-8.43-8.12V82A31.78,31.78,0,0,0,47.67,83.75ZM85.8,60.62c0-7-4.73-12.7-10.58-12.7s-10.58,5.69-10.58,12.7,4.74,12.7,10.58,12.7S85.8,67.64,85.8,60.62Zm25.4-21.33a31.34,31.34,0,0,0-7.38-1.67,8.46,8.46,0,0,0,7.38,8.14Zm0,30.07A8.46,8.46,0,0,0,104,75.88,44.23,44.23,0,0,1,111.2,77Z" />
</svg>