<svg id="Layer_1" data-name="Layer 1" xmlns="http://www.w3.org/2000/svg" viewBox="0 0 120 120"><defs><style>.cls-1{fill:#ccc;}.cls-2{fill:#e00;}</style></defs><title>iconos</title><path class="cls-1" d="M67.9,80q0-.6,0-1.2A23.33,23.33,0,0,0,22,72.87a17.79,17.79,0,0,0,1.51,35.51H67A14.24,14.24,0,0,0,81.2,94.15h0A14.22,14.22,0,0,0,67.9,80Z"/><path class="cls-2" d="M107.69,59.24a22.35,22.35,0,0,1-22.94,5.33L51.56,97.76A10,10,0,0,1,37.47,83.67L70.69,50.45A22.3,22.3,0,0,1,97.25,21.64a1.87,1.87,0,0,1,.88,3.13L86.55,36.35l1.76,10.57,10.57,1.76L110.46,37.1a1.87,1.87,0,0,1,3.13.86A22.41,22.41,0,0,1,107.69,59.24ZM48.25,90.72a3.74,3.74,0,1,0-3.74,3.73A3.73,3.73,0,0,0,48.25,90.72Z"/></svg>